  0
SECTION
  2
HEADER
  9
$ACADVER
  1
AC1009
  9
$INSBASE
 10
0.0
 20
0.0
 30
0.0
  9
$EXTMIN
 10
198.126017731856308
 20
192.6365772659142124
 30
0.0
  9
$EXTMAX
 10
1707.8228916335899612
 20
793.218063797733862
 30
0.0
  9
$LIMMIN
 10
0.0
 20
0.0
  9
$LIMMAX
 10
12.0
 20
9.0
  9
$ORTHOMODE
 70
     0
  9
$REGENMODE
 70
     1
  9
$FILLMODE
 70
     1
  9
$QTEXTMODE
 70
     0
  9
$MIRRTEXT
 70
     0
  9
$DRAGMODE
 70
     2
  9
$LTSCALE
 40
1.0
  9
$OSMODE
 70
  1279
  9
$ATTMODE
 70
     1
  9
$TEXTSIZE
 40
0.2
  9
$TRACEWID
 40
0.05
  9
$TEXTSTYLE
  7
STANDARD
  9
$CLAYER
  8
DEFPOINTS
  9
$CELTYPE
  6
BYLAYER
  9
$CECOLOR
 62
   256
  9
$DIMSCALE
 40
1.0
  9
$DIMASZ
 40
0.18
  9
$DIMEXO
 40
0.0625
  9
$DIMDLI
 40
0.38
  9
$DIMRND
 40
0.0
  9
$DIMDLE
 40
0.0
  9
$DIMEXE
 40
0.18
  9
$DIMTP
 40
0.0
  9
$DIMTM
 40
0.0
  9
$DIMTXT
 40
0.18
  9
$DIMCEN
 40
0.09
  9
$DIMTSZ
 40
0.0
  9
$DIMTOL
 70
     0
  9
$DIMLIM
 70
     0
  9
$DIMTIH
 70
     1
  9
$DIMTOH
 70
     1
  9
$DIMSE1
 70
     0
  9
$DIMSE2
 70
     0
  9
$DIMTAD
 70
     0
  9
$DIMZIN
 70
     0
  9
$DIMBLK
  1

  9
$DIMASO
 70
     1
  9
$DIMSHO
 70
     1
  9
$DIMPOST
  1

  9
$DIMAPOST
  1

  9
$DIMALT
 70
     0
  9
$DIMALTD
 70
     2
  9
$DIMALTF
 40
25.3999999999999986
  9
$DIMLFAC
 40
1.0
  9
$DIMTOFL
 70
     0
  9
$DIMTVP
 40
0.0
  9
$DIMTIX
 70
     0
  9
$DIMSOXD
 70
     0
  9
$DIMSAH
 70
     0
  9
$DIMBLK1
  1

  9
$DIMBLK2
  1

  9
$DIMSTYLE
  2
STANDARD
  9
$DIMCLRD
 70
     0
  9
$DIMCLRE
 70
     0
  9
$DIMCLRT
 70
     0
  9
$DIMTFAC
 40
1.0
  9
$DIMGAP
 40
0.09
  9
$LUNITS
 70
     2
  9
$LUPREC
 70
     4
  9
$SKETCHINC
 40
0.1
  9
$FILLETRAD
 40
1.0
  9
$AUNITS
 70
     0
  9
$AUPREC
 70
     0
  9
$MENU
  1
.
  9
$ELEVATION
 40
0.0
  9
$PELEVATION
 40
0.0
  9
$THICKNESS
 40
0.0
  9
$LIMCHECK
 70
     0
  9
$BLIPMODE
 70
     0
  9
$CHAMFERA
 40
0.0
  9
$CHAMFERB
 40
0.0
  9
$SKPOLY
 70
     0
  9
$TDCREATE
 40
2460789.6172800920903683
  9
$TDUPDATE
 40
2460790.8280671299435198
  9
$TDINDWG
 40
0.175
  9
$TDUSRTIMER
 40
0.175
  9
$USRTIMER
 70
     1
  9
$ANGBASE
 50
0.0
  9
$ANGDIR
 70
     0
  9
$PDMODE
 70
     0
  9
$PDSIZE
 40
0.0
  9
$PLINEWID
 40
0.0
  9
$COORDS
 70
     1
  9
$SPLFRAME
 70
     0
  9
$SPLINETYPE
 70
     6
  9
$SPLINESEGS
 70
     8
  9
$ATTDIA
 70
     1
  9
$ATTREQ
 70
     1
  9
$HANDLING
 70
     1
  9
$HANDSEED
  5
C95
  9
$SURFTAB1
 70
     6
  9
$SURFTAB2
 70
     6
  9
$SURFTYPE
 70
     6
  9
$SURFU
 70
     6
  9
$SURFV
 70
     6
  9
$UCSNAME
  2

  9
$UCSORG
 10
0.0
 20
0.0
 30
0.0
  9
$UCSXDIR
 10
1.0
 20
0.0
 30
0.0
  9
$UCSYDIR
 10
0.0
 20
1.0
 30
0.0
  9
$PUCSNAME
  2

  9
$PUCSORG
 10
0.0
 20
0.0
 30
0.0
  9
$PUCSXDIR
 10
1.0
 20
0.0
 30
0.0
  9
$PUCSYDIR
 10
0.0
 20
1.0
 30
0.0
  9
$USERI1
 70
     0
  9
$USERI2
 70
     0
  9
$USERI3
 70
     0
  9
$USERI4
 70
     0
  9
$USERI5
 70
     0
  9
$USERR1
 40
0.0
  9
$USERR2
 40
0.0
  9
$USERR3
 40
0.0
  9
$USERR4
 40
0.0
  9
$USERR5
 40
0.0
  9
$WORLDVIEW
 70
     1
  9
$SHADEDGE
 70
     3
  9
$SHADEDIF
 70
    70
  9
$TILEMODE
 70
     1
  9
$MAXACTVP
 70
    64
  9
$PLIMCHECK
 70
     0
  9
$PEXTMIN
 10
0.0
 20
0.0
 30
0.0
  9
$PEXTMAX
 10
0.0
 20
0.0
 30
0.0
  9
$PLIMMIN
 10
0.0
 20
0.0
  9
$PLIMMAX
 10
12.0
 20
9.0
  9
$UNITMODE
 70
     0
  9
$VISRETAIN
 70
     1
  9
$PLINEGEN
 70
     0
  9
$PSLTSCALE
 70
     1
  0
ENDSEC
  0
SECTION
  2
TABLES
  0
TABLE
  2
VPORT
 70
     1
  0
VPORT
  2
*ACTIVE
 70
     0
 10
0.0
 20
0.0
 11
1.0
 21
1.0
 12
1335.2479760882090432
 22
275.0057320673677168
 13
0.0
 23
0.0
 14
0.5
 24
0.5
 15
0.5
 25
0.5
 16
0.0
 26
0.0
 36
1.0
 17
0.0
 27
0.0
 37
0.0
 40
1794.9123456510819778
 41
2.4042553191489362
 42
50.0
 43
0.0
 44
0.0
 50
0.0
 51
0.0
 71
     0
 72
  1000
 73
     1
 74
     3
 75
     0
 76
     1
 77
     0
 78
     0
  0
ENDTAB
  0
TABLE
  2
LTYPE
 70
     1
  0
LTYPE
  2
CONTINUOUS
 70
     0
  3
Solid line
 72
    65
 73
     0
 40
0.0
  0
ENDTAB
  0
TABLE
  2
LAYER
 70
     5
  0
LAYER
  2
0
 70
     0
 62
     7
  6
CONTINUOUS
  0
LAYER
  2
DEFPOINTS
 70
     0
 62
     7
  6
CONTINUOUS
  0
LAYER
  2
LAYER1
 70
     0
 62
    10
  6
CONTINUOUS
  0
LAYER
  2
LAYER2
 70
     0
 62
    62
  6
CONTINUOUS
  0
LAYER
  2
LAYER3
 70
     0
 62
    50
  6
CONTINUOUS
  0
ENDTAB
  0
TABLE
  2
STYLE
 70
     2
  0
STYLE
  2
STANDARD
 70
     0
 40
0.0
 41
1.0
 50
0.0
 71
     0
 42
0.2
  3
txt
  4

  0
STYLE
  2
ANNOTATIVE
 70
     0
 40
0.0
 41
1.0
 50
0.0
 71
     0
 42
0.2
  3
txt
  4

  0
ENDTAB
  0
TABLE
  2
VIEW
 70
     0
  0
ENDTAB
  0
TABLE
  2
UCS
 70
     0
  0
ENDTAB
  0
TABLE
  2
APPID
 70
    10
  0
APPID
  2
ACAD
 70
     0
  0
APPID
  2
ACADANNOTATIVE
 70
     0
  0
APPID
  2
ACADANNOPO
 70
     0
  0
APPID
  2
ACAD_DSTYLE_DIMJAG
 70
     0
  0
APPID
  2
ACAD_DSTYLE_DIMTALN
 70
     0
  0
APPID
  2
ACAD_MLEADERVER
 70
     0
  0
APPID
  2
ACAD_NAV_VCDISPLAY
 70
     0
  0
APPID
  2
ACAECLAYERSTANDARD
 70
     0
  0
APPID
  2
ACCMTRANSPARENCY
 70
     0
  0
APPID
  2
ACAD_TC
 70
     0
  0
ENDTAB
  0
TABLE
  2
DIMSTYLE
 70
     2
  0
DIMSTYLE
  2
STANDARD
 70
     0
  3

  4

  5

  6

  7

 40
1.0
 41
0.18
 42
0.0625
 43
0.38
 44
0.18
 45
0.0
 46
0.0
 47
0.0
 48
0.0
140
0.18
141
0.09
142
0.0
143
25.3999999999999986
144
1.0
145
0.0
146
1.0
147
0.09
 71
     0
 72
     0
 73
     1
 74
     1
 75
     0
 76
     0
 77
     0
 78
     0
170
     0
171
     2
172
     0
173
     0
174
     0
175
     0
176
     0
177
     0
178
     0
  0
DIMSTYLE
  2
ANNOTATIVE
 70
     0
  3

  4

  5

  6

  7

 40
0.0
 41
0.18
 42
0.0625
 43
0.38
 44
0.18
 45
0.0
 46
0.0
 47
0.0
 48
0.0
140
0.18
141
0.09
142
0.0
143
25.3999999999999986
144
1.0
145
0.0
146
1.0
147
0.09
 71
     0
 72
     0
 73
     1
 74
     1
 75
     0
 76
     0
 77
     0
 78
     0
170
     0
171
     2
172
     0
173
     0
174
     0
175
     0
176
     0
177
     0
178
     0
  0
ENDTAB
  0
ENDSEC
  0
SECTION
  2
BLOCKS
  0
BLOCK
  8
0
  2
$MODEL_SPACE
 70
     0
 10
0.0
 20
0.0
 30
0.0
  3
$MODEL_SPACE
  1

  0
ENDBLK
  5
7AB
  8
0
  0
BLOCK
 67
     1
  8
0
  2
$PAPER_SPACE
 70
     0
 10
0.0
 20
0.0
 30
0.0
  3
$PAPER_SPACE
  1

  0
ENDBLK
  5
7A7
 67
     1
  8
0
  0
BLOCK
  8
0
  2
*D2
 70
     1
 10
0.0
 20
0.0
 30
0.0
  3
*D2
  1

  0
LINE
  5
261
  8
LAYER3
 62
     0
 10
700.8251342741790495
 20
578.5208128761743183
 30
0.0
 11
700.8251342741790495
 21
578.6383128761741546
 31
0.0
  0
LINE
  5
262
  8
LAYER3
 62
     0
 10
709.8251342741790495
 20
578.5208128761743183
 30
0.0
 11
709.8251342741790495
 21
578.6383128761741546
 31
0.0
  0
LINE
  5
263
  8
LAYER3
 62
     0
 10
701.0051342741791132
 20
578.4583128761743183
 30
0.0
 11
704.8618123096498493
 21
578.4583128761743183
 31
0.0
  0
LINE
  5
264
  8
LAYER3
 62
     0
 10
709.6451342741792132
 20
578.4583128761743183
 30
0.0
 11
705.7884562387083633
 21
578.4583128761743183
 31
0.0
  0
SOLID
  5
265
  8
LAYER3
 62
     0
 10
701.0051342741791132
 20
578.4883128761744047
 30
0.0
 11
701.0051342741791132
 21
578.4283128761743455
 31
0.0
 12
700.8251342741790495
 22
578.4583128761743183
 32
0.0
 13
700.8251342741790495
 23
578.4583128761743183
 33
0.0
  0
SOLID
  5
266
  8
LAYER3
 62
     0
 10
709.6451342741792132
 20
578.4883128761744047
 30
0.0
 11
709.6451342741792132
 21
578.4283128761743455
 31
0.0
 12
709.8251342741790495
 22
578.4583128761743183
 32
0.0
 13
709.8251342741790495
 23
578.4583128761743183
 33
0.0
  0
INSERT
  5
267
  8
DEFPOINTS
  2
*U3
 10
0.0
 20
0.0
 30
0.0
  0
POINT
  5
268
  8
DEFPOINTS
 62
     0
 10
700.8251342741790495
 20
578.4583128761743183
 30
0.0
  0
POINT
  5
269
  8
DEFPOINTS
 62
     0
 10
709.8251342741790495
 20
578.4583128761743183
 30
0.0
  0
POINT
  5
26A
  8
DEFPOINTS
 62
     0
 10
709.8251342741790495
 20
578.4583128761743183
 30
0.0
  0
ENDBLK
  5
255
  8
0
  0
BLOCK
  8
0
  2
*U3
 70
     1
 10
0.0
 20
0.0
 30
0.0
  3
*U3
  1

  0
TEXT
  5
6E9
  8
LAYER3
 62
     0
 10
704.9413757475762168
 20
578.3698476647144844
 30
0.0
 40
0.18
  1
9.0000
  0
ENDBLK
  5
6EB
  8
0
  0
BLOCK
  8
0
  2
*D4
 70
     1
 10
0.0
 20
0.0
 30
0.0
  3
*D4
  1

  0
LINE
  5
27B
  8
LAYER3
 62
     0
 10
670.3251342741791632
 20
352.6099450710444216
 30
0.0
 11
670.3251342741791632
 21
359.9421868739564729
 31
0.0
  0
LINE
  5
27C
  8
LAYER3
 62
     0
 10
740.3251342741790495
 20
352.6099450710444216
 30
0.0
 11
740.3251342741790495
 21
359.9421868739564729
 31
0.0
  0
LINE
  5
27D
  8
LAYER3
 62
     0
 10
670.5051342741791132
 20
359.7621868739565798
 30
0.0
 11
704.7926240422555111
 21
359.7621868739565798
 31
0.0
  0
LINE
  5
27E
  8
LAYER3
 62
     0
 10
740.1451342741792132
 20
359.7621868739565798
 30
0.0
 11
705.8576445061028153
 21
359.7621868739565798
 31
0.0
  0
SOLID
  5
27F
  8
LAYER3
 62
     0
 10
670.5051342741791132
 20
359.7921868739564957
 30
0.0
 11
670.5051342741791132
 21
359.7321868739566071
 31
0.0
 12
670.3251342741791632
 22
359.7621868739565798
 32
0.0
 13
670.3251342741791632
 23
359.7621868739565798
 33
0.0
  0
SOLID
  5
280
  8
LAYER3
 62
     0
 10
740.1451342741792132
 20
359.7921868739564957
 30
0.0
 11
740.1451342741792132
 21
359.7321868739566071
 31
0.0
 12
740.3251342741790495
 22
359.7621868739565798
 32
0.0
 13
740.3251342741790495
 23
359.7621868739565798
 33
0.0
  0
INSERT
  5
281
  8
DEFPOINTS
  2
*U5
 10
0.0
 20
0.0
 30
0.0
  0
POINT
  5
282
  8
DEFPOINTS
 62
     0
 10
670.3251342741791632
 20
352.5474450710444216
 30
0.0
  0
POINT
  5
283
  8
DEFPOINTS
 62
     0
 10
740.3251342741790495
 20
352.5474450710444216
 30
0.0
  0
POINT
  5
284
  8
DEFPOINTS
 62
     0
 10
740.3251342741790495
 20
359.7621868739565798
 30
0.0
  0
ENDBLK
  5
26F
  8
0
  0
BLOCK
  8
0
  2
*U5
 70
     1
 10
0.0
 20
0.0
 30
0.0
  3
*U5
  1

  0
TEXT
  5
6ED
  8
LAYER3
 62
     0
 10
704.8707140831829747
 20
359.6737216624966891
 30
0.0
 40
0.18
  1
70.0000
  0
ENDBLK
  5
6EF
  8
0
  0
BLOCK
  8
0
  2
*D6
 70
     1
 10
0.0
 20
0.0
 30
0.0
  3
*D6
  1

  0
LINE
  5
295
  8
LAYER3
 62
     0
 10
740.3876342741796179
 20
352.5474450710444785
 30
0.0
 11
754.0349536121728988
 21
352.5474450710444785
 31
0.0
  0
LINE
  5
296
  8
LAYER3
 62
     0
 10
740.3876342741796179
 20
287.5474450710444785
 30
0.0
 11
754.0349536121728988
 21
287.5474450710444785
 31
0.0
  0
LINE
  5
297
  8
LAYER3
 62
     0
 10
753.8549536121729489
 20
352.3674450710444717
 30
0.0
 11
753.8549536121729489
 21
320.2293482088343808
 31
0.0
  0
LINE
  5
298
  8
LAYER3
 62
     0
 10
753.8549536121729489
 20
287.7274450710444853
 30
0.0
 11
753.8549536121729489
 21
319.8655419332545762
 31
0.0
  0
SOLID
  5
299
  8
LAYER3
 62
     0
 10
753.8249536121730898
 20
352.3674450710444717
 30
0.0
 11
753.8849536121731489
 21
352.3674450710444717
 31
0.0
 12
753.8549536121729489
 22
352.5474450710444785
 32
0.0
 13
753.8549536121729489
 23
352.5474450710444785
 33
0.0
  0
SOLID
  5
29A
  8
LAYER3
 62
     0
 10
753.8249536121730898
 20
287.7274450710444853
 30
0.0
 11
753.8849536121731489
 21
287.7274450710444853
 31
0.0
 12
753.8549536121729489
 22
287.5474450710444785
 32
0.0
 13
753.8549536121729489
 23
287.5474450710444785
 33
0.0
  0
INSERT
  5
29B
  8
DEFPOINTS
  2
*U7
 10
0.0
 20
0.0
 30
0.0
  0
POINT
  5
29C
  8
DEFPOINTS
 62
     0
 10
740.3251342741796179
 20
352.5474450710444785
 30
0.0
  0
POINT
  5
29D
  8
DEFPOINTS
 62
     0
 10
740.3251342741796179
 20
287.5474450710444785
 30
0.0
  0
POINT
  5
29E
  8
DEFPOINTS
 62
     0
 10
753.8549536121729489
 20
287.5474450710444785
 30
0.0
  0
ENDBLK
  5
289
  8
0
  0
BLOCK
  8
0
  2
*U7
 70
     1
 10
0.0
 20
0.0
 30
0.0
  3
*U7
  1

  0
TEXT
  5
6F1
  8
LAYER3
 62
     0
 10
753.4017612520091234
 20
319.9589798595844741
 30
0.0
 40
0.18
  1
65.0000
  0
ENDBLK
  5
6F3
  8
0
  0
BLOCK
  8
0
  2
*D8
 70
     1
 10
0.0
 20
0.0
 30
0.0
  3
*D8
  1

  0
LINE
  5
602
  8
DEFPOINTS
 62
     0
 10
586.0891964301242751
 20
804.7651124219313488
 30
0.0
 11
586.0891964301242751
 21
807.9769782292295304
 31
0.0
  0
LINE
  5
603
  8
DEFPOINTS
 62
     0
 10
606.0891964301242751
 20
804.7651124219313488
 30
0.0
 11
606.0891964301242751
 21
807.9769782292295304
 31
0.0
  0
LINE
  5
604
  8
DEFPOINTS
 62
     0
 10
586.2691964301244525
 20
807.7969782292298078
 30
0.0
 11
595.5544147111613711
 21
807.7969782292298078
 31
0.0
  0
LINE
  5
605
  8
DEFPOINTS
 62
     0
 10
605.9091964301245525
 20
807.7969782292298078
 30
0.0
 11
596.6239781490876339
 21
807.7969782292298078
 31
0.0
  0
SOLID
  5
606
  8
DEFPOINTS
 62
     0
 10
586.2691964301244525
 20
807.8269782292295531
 30
0.0
 11
586.2691964301244525
 21
807.7669782292296077
 31
0.0
 12
586.0891964301242751
 22
807.7969782292298078
 32
0.0
 13
586.0891964301242751
 23
807.7969782292298078
 33
0.0
  0
SOLID
  5
607
  8
DEFPOINTS
 62
     0
 10
605.9091964301245525
 20
807.8269782292295531
 30
0.0
 11
605.9091964301245525
 21
807.7669782292296077
 31
0.0
 12
606.0891964301242751
 22
807.7969782292298078
 32
0.0
 13
606.0891964301242751
 23
807.7969782292298078
 33
0.0
  0
INSERT
  5
608
  8
DEFPOINTS
  2
*U9
 10
0.0
 20
0.0
 30
0.0
  0
POINT
  5
609
  8
DEFPOINTS
 62
     0
 10
586.0891964301242751
 20
804.7026124219313488
 30
0.0
  0
POINT
  5
60A
  8
DEFPOINTS
 62
     0
 10
606.0891964301242751
 20
804.7026124219313488
 30
0.0
  0
POINT
  5
60B
  8
DEFPOINTS
 62
     0
 10
606.0891964301242751
 20
807.7969782292298078
 30
0.0
  0
ENDBLK
  5
5F6
  8
0
  0
BLOCK
  8
0
  2
*U9
 70
     1
 10
0.0
 20
0.0
 30
0.0
  3
*U9
  1

  0
TEXT
  5
71C
  8
DEFPOINTS
 62
     0
 10
595.6370477261680207
 20
807.7085130177699739
 30
0.0
 40
0.18
  1
20.0000
  0
ENDBLK
  5
71E
  8
0
  0
BLOCK
  8
0
  2
*D10
 70
     1
 10
0.0
 20
0.0
 30
0.0
  3
*D10
  1

  0
LINE
  5
621
  8
DEFPOINTS
 62
     0
 10
797.1417564236187445
 20
761.7199634747779555
 30
0.0
 11
797.1417564236187445
 21
782.3140155975951302
 31
0.0
  0
LINE
  5
622
  8
DEFPOINTS
 62
     0
 10
777.1417564236187445
 20
761.7199634747779555
 30
0.0
 11
777.1417564236187445
 21
782.3140155975951302
 31
0.0
  0
LINE
  5
623
  8
DEFPOINTS
 62
     0
 10
796.9617564236190219
 20
782.1340155975954076
 30
0.0
 11
787.6765381425819896
 21
782.1340155975954076
 31
0.0
  0
LINE
  5
624
  8
DEFPOINTS
 62
     0
 10
777.3217564236188082
 20
782.1340155975954076
 30
0.0
 11
786.6069747046558405
 21
782.1340155975954076
 31
0.0
  0
SOLID
  5
625
  8
DEFPOINTS
 62
     0
 10
796.9617564236190219
 20
782.164015597595494
 30
0.0
 11
796.9617564236190219
 21
782.1040155975954349
 31
0.0
 12
797.1417564236187445
 22
782.1340155975954076
 32
0.0
 13
797.1417564236187445
 23
782.1340155975954076
 33
0.0
  0
SOLID
  5
626
  8
DEFPOINTS
 62
     0
 10
777.3217564236188082
 20
782.164015597595494
 30
0.0
 11
777.3217564236188082
 21
782.1040155975954349
 31
0.0
 12
777.1417564236187445
 22
782.1340155975954076
 32
0.0
 13
777.1417564236187445
 23
782.1340155975954076
 33
0.0
  0
INSERT
  5
627
  8
DEFPOINTS
  2
*U11
 10
0.0
 20
0.0
 30
0.0
  0
POINT
  5
628
  8
DEFPOINTS
 62
     0
 10
797.1417564236187445
 20
761.6574634747779555
 30
0.0
  0
POINT
  5
629
  8
DEFPOINTS
 62
     0
 10
777.1417564236187445
 20
761.6574634747779555
 30
0.0
  0
POINT
  5
62A
  8
DEFPOINTS
 62
     0
 10
777.1417564236187445
 20
782.1340155975954076
 30
0.0
  0
ENDBLK
  5
615
  8
0
  0
BLOCK
  8
0
  2
*U11
 70
     1
 10
0.0
 20
0.0
 30
0.0
  3
*U11
  1

  0
TEXT
  5
720
  8
DEFPOINTS
 62
     0
 10
786.6896077196626038
 20
782.0455503861356874
 30
0.0
 40
0.18
  1
20.0000
  0
ENDBLK
  5
722
  8
0
  0
ENDSEC
  0
SECTION
  2
ENTITIES
  0
POLYLINE
  5
1FE
  8
LAYER1
 66
     1
 10
0.0
 20
0.0
 30
0.0
  0
VERTEX
  5
BA4
  8
LAYER1
 10
750.8251342741790495
 20
505.547445071044308
 30
0.0
  0
VERTEX
  5
BA5
  8
LAYER1
 10
750.8251342741790495
 20
355.5474450710444216
 30
0.0
  0
VERTEX
  5
BA6
  8
LAYER1
 10
659.8251342741790495
 20
355.5474450710444216
 30
0.0
  0
VERTEX
  5
BA7
  8
LAYER1
 10
659.8251342741790495
 20
505.547445071044308
 30
0.0
  0
VERTEX
  5
BA8
  8
LAYER1
 10
750.8251342741790495
 20
505.547445071044308
 30
0.0
  0
SEQEND
  5
BA9
  8
LAYER1
  0
POLYLINE
  5
202
  8
LAYER1
 66
     1
 10
0.0
 20
0.0
 30
0.0
  0
VERTEX
  5
BAA
  8
LAYER1
 10
670.3251342741791632
 20
348.5474450710444216
 30
0.0
  0
VERTEX
  5
BAB
  8
LAYER1
 10
740.3251342741790495
 20
348.5474450710444216
 30
0.0
  0
VERTEX
  5
BAC
  8
LAYER1
 10
740.3251342741790495
 20
283.547445071044308
 30
0.0
  0
VERTEX
  5
BAD
  8
LAYER1
 10
670.3251342741791632
 20
283.547445071044308
 30
0.0
  0
VERTEX
  5
BAE
  8
LAYER1
 10
670.3251342741791632
 20
348.5474450710444216
 30
0.0
  0
SEQEND
  5
BAF
  8
LAYER1
  0
POLYLINE
  5
219
  8
LAYER1
 66
     1
 10
0.0
 20
0.0
 30
0.0
 70
     1
  0
VERTEX
  5
BB0
  8
LAYER1
 10
618.3251342741790495
 20
505.547445071044308
 30
0.0
  0
VERTEX
  5
BB1
  8
LAYER1
 10
580.3251342741790495
 20
505.547445071044308
 30
0.0
  0
VERTEX
  5
BB2
  8
LAYER1
 10
580.3251342741790495
 20
497.547445071044308
 30
0.0
  0
VERTEX
  5
BB3
  8
LAYER1
 10
610.3251342741790495
 20
497.547445071044308
 30
0.0
  0
VERTEX
  5
BB4
  8
LAYER1
 10
610.3251342741790495
 20
485.4474450710442284
 30
0.0
  0
VERTEX
  5
BB5
  8
LAYER1
 10
580.3251342741790495
 20
485.4474450710442284
 30
0.0
  0
VERTEX
  5
BB6
  8
LAYER1
 10
580.3251342741790495
 20
477.4474450710441147
 30
0.0
  0
VERTEX
  5
BB7
  8
LAYER1
 10
618.3251342741790495
 20
477.4474450710441147
 30
0.0
  0
SEQEND
  5
BB8
  8
LAYER1
  0
POLYLINE
  5
21A
  8
LAYER1
 66
     1
 10
0.0
 20
0.0
 30
0.0
 70
     1
  0
VERTEX
  5
BB9
  8
LAYER1
 10
618.3251342741790495
 20
295.5474450710444216
 30
0.0
  0
VERTEX
  5
BBA
  8
LAYER1
 10
580.3251342741790495
 20
295.5474450710444216
 30
0.0
  0
VERTEX
  5
BBB
  8
LAYER1
 10
580.3251342741790495
 20
303.5474450710444216
 30
0.0
  0
VERTEX
  5
BBC
  8
LAYER1
 10
610.3251342741790495
 20
303.5474450710444216
 30
0.0
  0
VERTEX
  5
BBD
  8
LAYER1
 10
610.3251342741790495
 20
315.6474450710442738
 30
0.0
  0
VERTEX
  5
BBE
  8
LAYER1
 10
580.3251342741790495
 20
315.6474450710442738
 30
0.0
  0
VERTEX
  5
BBF
  8
LAYER1
 10
580.3251342741790495
 20
323.6474450710442738
 30
0.0
  0
VERTEX
  5
BC0
  8
LAYER1
 10
618.3251342741790495
 20
323.6474450710442738
 30
0.0
  0
SEQEND
  5
BC1
  8
LAYER1
  0
POLYLINE
  5
21B
  8
LAYER1
 66
     1
 10
0.0
 20
0.0
 30
0.0
 70
     1
  0
VERTEX
  5
BC2
  8
LAYER1
 10
792.3251342741790495
 20
505.547445071044308
 30
0.0
  0
VERTEX
  5
BC3
  8
LAYER1
 10
830.3251342741789358
 20
505.547445071044308
 30
0.0
  0
VERTEX
  5
BC4
  8
LAYER1
 10
830.3251342741789358
 20
497.547445071044308
 30
0.0
  0
VERTEX
  5
BC5
  8
LAYER1
 10
800.3251342741790495
 20
497.547445071044308
 30
0.0
  0
VERTEX
  5
BC6
  8
LAYER1
 10
800.3251342741790495
 20
485.4474450710442284
 30
0.0
  0
VERTEX
  5
BC7
  8
LAYER1
 10
830.3251342741789358
 20
485.4474450710442284
 30
0.0
  0
VERTEX
  5
BC8
  8
LAYER1
 10
830.3251342741789358
 20
477.4474450710441147
 30
0.0
  0
VERTEX
  5
BC9
  8
LAYER1
 10
792.3251342741790495
 20
477.4474450710441147
 30
0.0
  0
SEQEND
  5
BCA
  8
LAYER1
  0
POLYLINE
  5
21C
  8
LAYER1
 66
     1
 10
0.0
 20
0.0
 30
0.0
 70
     1
  0
VERTEX
  5
BCB
  8
LAYER1
 10
792.3251342741790495
 20
295.5474450710444216
 30
0.0
  0
VERTEX
  5
BCC
  8
LAYER1
 10
830.3251342741789358
 20
295.5474450710444216
 30
0.0
  0
VERTEX
  5
BCD
  8
LAYER1
 10
830.3251342741789358
 20
303.5474450710444216
 30
0.0
  0
VERTEX
  5
BCE
  8
LAYER1
 10
800.3251342741790495
 20
303.5474450710444216
 30
0.0
  0
VERTEX
  5
BCF
  8
LAYER1
 10
800.3251342741790495
 20
315.6474450710442738
 30
0.0
  0
VERTEX
  5
BD0
  8
LAYER1
 10
830.3251342741789358
 20
315.6474450710442738
 30
0.0
  0
VERTEX
  5
BD1
  8
LAYER1
 10
830.3251342741789358
 20
323.6474450710442738
 30
0.0
  0
VERTEX
  5
BD2
  8
LAYER1
 10
792.3251342741790495
 20
323.6474450710442738
 30
0.0
  0
SEQEND
  5
BD3
  8
LAYER1
  0
POLYLINE
  5
21E
  8
LAYER1
 66
     1
 10
0.0
 20
0.0
 30
0.0
  0
VERTEX
  5
BD4
  8
LAYER1
 10
750.8251342741790495
 20
355.5474450710444216
 30
0.0
  0
VERTEX
  5
BD5
  8
LAYER1
 10
771.8251342741790495
 20
355.5474450710444216
 30
0.0
  0
VERTEX
  5
BD6
  8
LAYER1
 10
771.8251342741790495
 20
398.5474450710444216
 30
0.0
  0
VERTEX
  5
BD7
  8
LAYER1
 10
750.8251342741790495
 20
398.5474450710444216
 30
0.0
  0
VERTEX
  5
BD8
  8
LAYER1
 10
750.8251342741790495
 20
355.5474450710444216
 30
0.0
  0
SEQEND
  5
BD9
  8
LAYER1
  0
POLYLINE
  5
222
  8
LAYER2
 66
     1
 10
0.0
 20
0.0
 30
0.0
  0
VERTEX
  5
BDA
  8
LAYER2
 10
659.8251342741790495
 20
505.547445071044308
 30
0.0
  0
VERTEX
  5
BDB
  8
LAYER2
 10
679.8251342741790495
 20
505.547445071044308
 30
0.0
  0
VERTEX
  5
BDC
  8
LAYER2
 10
679.8251342741790495
 20
485.547445071044308
 30
0.0
  0
VERTEX
  5
BDD
  8
LAYER2
 10
659.8251342741790495
 20
485.547445071044308
 30
0.0
  0
VERTEX
  5
BDE
  8
LAYER2
 10
659.8251342741790495
 20
505.547445071044308
 30
0.0
  0
SEQEND
  5
BDF
  8
LAYER2
  0
POLYLINE
  5
223
  8
LAYER2
 66
     1
 10
0.0
 20
0.0
 30
0.0
  0
VERTEX
  5
BE0
  8
LAYER2
 10
750.8251342741790495
 20
505.547445071044308
 30
0.0
  0
VERTEX
  5
BE1
  8
LAYER2
 10
730.8251342741790495
 20
505.547445071044308
 30
0.0
  0
VERTEX
  5
BE2
  8
LAYER2
 10
730.8251342741790495
 20
485.547445071044308
 30
0.0
  0
VERTEX
  5
BE3
  8
LAYER2
 10
750.8251342741790495
 20
485.547445071044308
 30
0.0
  0
VERTEX
  5
BE4
  8
LAYER2
 10
750.8251342741790495
 20
505.547445071044308
 30
0.0
  0
SEQEND
  5
BE5
  8
LAYER2
  0
POLYLINE
  5
224
  8
LAYER2
 66
     1
 10
0.0
 20
0.0
 30
0.0
  0
VERTEX
  5
BE6
  8
LAYER2
 10
659.8251342741790495
 20
355.5474450710444216
 30
0.0
  0
VERTEX
  5
BE7
  8
LAYER2
 10
679.8251342741790495
 20
355.5474450710444216
 30
0.0
  0
VERTEX
  5
BE8
  8
LAYER2
 10
679.8251342741790495
 20
375.5474450710444216
 30
0.0
  0
VERTEX
  5
BE9
  8
LAYER2
 10
659.8251342741790495
 20
375.5474450710444216
 30
0.0
  0
VERTEX
  5
BEA
  8
LAYER2
 10
659.8251342741790495
 20
355.5474450710444216
 30
0.0
  0
SEQEND
  5
BEB
  8
LAYER2
  0
POLYLINE
  5
225
  8
LAYER2
 66
     1
 10
0.0
 20
0.0
 30
0.0
  0
VERTEX
  5
BEC
  8
LAYER2
 10
750.8251342741790495
 20
355.5474450710444216
 30
0.0
  0
VERTEX
  5
BED
  8
LAYER2
 10
730.8251342741790495
 20
355.5474450710444216
 30
0.0
  0
VERTEX
  5
BEE
  8
LAYER2
 10
730.8251342741790495
 20
375.5474450710444216
 30
0.0
  0
VERTEX
  5
BEF
  8
LAYER2
 10
750.8251342741790495
 20
375.5474450710444216
 30
0.0
  0
VERTEX
  5
BF0
  8
LAYER2
 10
750.8251342741790495
 20
355.5474450710444216
 30
0.0
  0
SEQEND
  5
BF1
  8
LAYER2
  0
LINE
  5
22E
  8
0
 10
833.3251342741790495
 20
272.547445071044308
 30
0.0
 11
577.3251342741790495
 21
272.547445071044308
 31
0.0
  0
LINE
  5
22F
  8
0
 10
577.3251342741790495
 20
272.547445071044308
 30
0.0
 11
577.3251342741790495
 21
528.5474450710441943
 31
0.0
  0
LINE
  5
230
  8
0
 10
577.3251342741790495
 20
528.5474450710441943
 30
0.0
 11
833.3251342741790495
 21
528.5474450710441943
 31
0.0
  0
LINE
  5
231
  8
0
 10
833.3251342741790495
 20
528.5474450710441943
 30
0.0
 11
833.3251342741790495
 21
272.547445071044308
 31
0.0
  0
LINE
  5
235
  8
LAYER3
 10
494.8944596496116901
 20
277.047445071044308
 30
0.0
 11
494.8944596496115196
 21
390.547445071044308
 31
0.0
  0
LINE
  5
236
  8
LAYER3
 10
554.8944596496116901
 20
524.047445071044308
 30
0.0
 11
554.8944596496116901
 21
277.047445071044308
 31
0.0
  0
CIRCLE
  5
23A
  8
LAYER3
 10
549.8944596496116901
 20
491.4974450710441829
 30
0.0
 40
2.0
  0
CIRCLE
  5
23B
  8
LAYER3
 10
549.8944596496116901
 20
309.5974450710443762
 30
0.0
 40
2.0
  0
LINE
  5
242
  8
LAYER3
 10
577.3251342741790495
 20
548.4583128761743183
 30
0.0
 11
577.3251342741790495
 21
608.4583128761742046
 31
0.0
  0
LINE
  5
243
  8
LAYER3
 10
833.3251342741790495
 20
548.4583128761743183
 30
0.0
 11
833.3251342741790495
 21
608.4583128761742046
 31
0.0
  0
LINE
  5
244
  8
LAYER3
 10
577.3251342741790495
 20
608.4583128761742046
 30
0.0
 11
586.0891964301242751
 21
608.4583128761742046
 31
0.0
  0
LINE
  5
245
  8
LAYER3
 10
577.3251342741790495
 20
548.4583128761743183
 30
0.0
 11
833.3251342741790495
 21
548.4583128761743183
 31
0.0
  0
LINE
  5
246
  8
LAYER3
 10
577.3251342741790495
 20
252.6365772659142976
 30
0.0
 11
577.3251342741790495
 21
192.6365772659142124
 31
0.0
  0
LINE
  5
247
  8
LAYER3
 10
833.3251342741790495
 20
252.6365772659142976
 30
0.0
 11
833.3251342741790495
 21
192.6365772659142124
 31
0.0
  0
LINE
  5
248
  8
LAYER3
 10
577.3251342741790495
 20
192.6365772659142124
 30
0.0
 11
833.3251342741790495
 21
192.6365772659142124
 31
0.0
  0
LINE
  5
249
  8
LAYER3
 10
577.3251342741790495
 20
252.6365772659142976
 30
0.0
 11
833.3251342741790495
 21
252.6365772659142976
 31
0.0
  0
CIRCLE
  5
24D
  8
LAYER3
 10
692.8251342741790495
 20
578.4583128761743183
 30
0.0
 40
8.0
  0
CIRCLE
  5
24E
  8
LAYER3
 10
717.8251342741790495
 20
578.4583128761743183
 30
0.0
 40
8.0
  0
POLYLINE
  5
2A0
  8
LAYER2
 66
     1
 10
0.0
 20
0.0
 30
0.0
  0
VERTEX
  5
BF2
  8
LAYER2
 10
670.3251342741791632
 20
283.547445071044308
 30
0.0
  0
VERTEX
  5
BF3
  8
LAYER2
 10
690.3251342741790495
 20
283.547445071044308
 30
0.0
  0
VERTEX
  5
BF4
  8
LAYER2
 10
690.3251342741790495
 20
303.5474450710444216
 30
0.0
  0
VERTEX
  5
BF5
  8
LAYER2
 10
670.3251342741791632
 20
303.5474450710444216
 30
0.0
  0
VERTEX
  5
BF6
  8
LAYER2
 10
670.3251342741791632
 20
283.547445071044308
 30
0.0
  0
SEQEND
  5
BF7
  8
LAYER2
  0
POLYLINE
  5
2A2
  8
LAYER1
 66
     1
 10
0.0
 20
0.0
 30
0.0
 70
     1
  0
VERTEX
  5
BF8
  8
LAYER1
 10
665.3251342741790495
 20
353.5474450710444216
 30
0.0
  0
VERTEX
  5
BF9
  8
LAYER1
 10
745.3251342741790495
 20
353.5474450710444216
 30
0.0
  0
VERTEX
  5
BFA
  8
LAYER1
 10
745.3251342741790495
 20
278.547445071044308
 30
0.0
  0
VERTEX
  5
BFB
  8
LAYER1
 10
665.3251342741790495
 20
278.547445071044308
 30
0.0
  0
SEQEND
  5
BFC
  8
LAYER1
  0
POLYLINE
  5
364
  8
LAYER3
 66
     1
 10
0.0
 20
0.0
 30
0.0
 70
     1
  0
VERTEX
  5
BFD
  8
LAYER3
 10
988.4173518474443654
 20
350.9159547097145264
 30
0.0
  0
VERTEX
  5
BFE
  8
LAYER3
 10
967.4173518474444791
 20
350.9159547097145264
 30
0.0
  0
VERTEX
  5
BFF
  8
LAYER3
 10
967.4173518474444791
 20
327.9159547097145264
 30
0.0
  0
VERTEX
  5
C00
  8
LAYER3
 10
947.4173518474443654
 20
327.9159547097145264
 30
0.0
  0
VERTEX
  5
C01
  8
LAYER3
 10
947.4173518474443654
 20
307.9159547097145264
 30
0.0
  0
VERTEX
  5
C02
  8
LAYER3
 10
967.4173518474444791
 20
307.9159547097145264
 30
0.0
  0
VERTEX
  5
C03
  8
LAYER3
 10
988.4173518474443654
 20
307.9159547097145264
 30
0.0
  0
SEQEND
  5
C04
  8
LAYER3
  0
LINE
  5
41F
  8
LAYER3
 10
586.0891964301242751
 20
605.4583128761743183
 30
0.0
 11
591.8391964301242751
 21
605.4583128761743183
 31
0.0
  0
LINE
  5
420
  8
LAYER3
 10
586.0891964301242751
 20
608.4583128761742046
 30
0.0
 11
586.0891964301242751
 21
605.4583128761743183
 31
0.0
  0
LINE
  5
421
  8
LAYER3
 10
606.0891964301242751
 20
608.4583128761742046
 30
0.0
 11
606.0891964301242751
 21
605.4583128761743183
 31
0.0
  0
LINE
  5
422
  8
LAYER3
 10
824.5610721182337102
 20
608.4583128761742046
 30
0.0
 11
824.5610721182337102
 21
605.4583128761743183
 31
0.0
  0
LINE
  5
423
  8
LAYER3
 10
804.5610721182335965
 20
608.4583128761742046
 30
0.0
 11
804.5610721182335965
 21
605.4583128761743183
 31
0.0
  0
LINE
  5
424
  8
LAYER3
 10
606.0891964301242751
 20
608.4583128761742046
 30
0.0
 11
804.5610721182335965
 21
608.4583128761742046
 31
0.0
  0
LINE
  5
425
  8
LAYER3
 10
824.5610721182337102
 20
608.4583128761742046
 30
0.0
 11
833.3251342741790495
 21
608.4583128761742046
 31
0.0
  0
LINE
  5
426
  8
LAYER3
 10
804.5610721182335965
 20
605.4583128761743183
 30
0.0
 11
810.3110721182337102
 21
605.4583128761743183
 31
0.0
  0
POLYLINE
  5
429
  8
LAYER3
 66
     1
 10
0.0
 20
0.0
 30
0.0
  0
VERTEX
  5
C05
  8
LAYER3
 10
810.3110721182337102
 20
605.4583128761743183
 30
0.0
  0
VERTEX
  5
C06
  8
LAYER3
 10
810.3110721182337102
 20
602.4583128761743183
 30
0.0
  0
VERTEX
  5
C07
  8
LAYER3
 10
818.8110721182335965
 20
602.4583128761743183
 30
0.0
  0
VERTEX
  5
C08
  8
LAYER3
 10
818.8110721182335965
 20
605.4583128761743183
 30
0.0
  0
SEQEND
  5
C09
  8
LAYER3
  0
POLYLINE
  5
42A
  8
LAYER3
 66
     1
 10
0.0
 20
0.0
 30
0.0
  0
VERTEX
  5
C0A
  8
LAYER3
 10
600.3391964301242751
 20
605.4583128761743183
 30
0.0
  0
VERTEX
  5
C0B
  8
LAYER3
 10
600.3391964301242751
 20
602.4583128761743183
 30
0.0
  0
VERTEX
  5
C0C
  8
LAYER3
 10
591.8391964301242751
 20
602.4583128761743183
 30
0.0
  0
VERTEX
  5
C0D
  8
LAYER3
 10
591.8391964301242751
 20
605.4583128761743183
 30
0.0
  0
SEQEND
  5
C0E
  8
LAYER3
  0
LINE
  5
42B
  8
LAYER3
 10
600.3391964301242751
 20
605.4583128761743183
 30
0.0
 11
606.0891964301242751
 21
605.4583128761743183
 31
0.0
  0
LINE
  5
42E
  8
LAYER3
 10
818.8110721182335965
 20
605.4583128761743183
 30
0.0
 11
824.5610721182337102
 21
605.4583128761743183
 31
0.0
  0
LINE
  5
42F
  8
LAYER3
 10
497.8944596496115196
 20
390.547445071044308
 30
0.0
 11
497.8944596496115196
 21
396.297445071044308
 31
0.0
  0
LINE
  5
430
  8
LAYER3
 10
497.8944596496115196
 20
404.797445071044308
 30
0.0
 11
497.8944596496115196
 21
410.547445071044308
 31
0.0
  0
LINE
  5
431
  8
LAYER3
 10
494.8944596496116901
 20
390.547445071044308
 30
0.0
 11
497.8944596496115196
 21
390.547445071044308
 31
0.0
  0
LINE
  5
432
  8
LAYER3
 10
494.8944596496116901
 20
410.547445071044308
 30
0.0
 11
497.8944596496115196
 21
410.547445071044308
 31
0.0
  0
POLYLINE
  5
433
  8
LAYER3
 66
     1
 10
0.0
 20
0.0
 30
0.0
  0
VERTEX
  5
C0F
  8
LAYER3
 10
497.8944596496115196
 20
404.797445071044308
 30
0.0
  0
VERTEX
  5
C10
  8
LAYER3
 10
500.8944596496116901
 20
404.797445071044308
 30
0.0
  0
VERTEX
  5
C11
  8
LAYER3
 10
500.8944596496116901
 20
396.297445071044308
 30
0.0
  0
VERTEX
  5
C12
  8
LAYER3
 10
497.8944596496115196
 20
396.297445071044308
 30
0.0
  0
SEQEND
  5
C13
  8
LAYER3
  0
LINE
  5
436
  8
LAYER3
 10
494.8944596496115196
 20
410.547445071044308
 30
0.0
 11
494.8944596496116901
 21
524.047445071044308
 31
0.0
  0
LINE
  5
511
  8
LAYER3
 10
554.8944596496116901
 20
524.047445071044308
 30
0.0
 11
494.8944596496116901
 21
524.047445071044308
 31
0.0
  0
LINE
  5
512
  8
LAYER3
 10
554.8944596496116901
 20
277.047445071044308
 30
0.0
 11
494.8944596496116901
 21
277.047445071044308
 31
0.0
  0
LINE
  5
513
  8
LAYER3
 10
855.7558088987464089
 20
524.047445071044308
 30
0.0
 11
915.7558088987466363
 21
524.047445071044308
 31
0.0
  0
LINE
  5
514
  8
LAYER3
 10
855.7558088987464089
 20
277.047445071044308
 30
0.0
 11
915.7558088987466363
 21
277.047445071044308
 31
0.0
  0
LINE
  5
515
  8
LAYER3
 10
915.7558088987466363
 20
277.047445071044308
 30
0.0
 11
915.7558088987466363
 21
390.547445071044308
 31
0.0
  0
LINE
  5
516
  8
LAYER3
 10
915.7558088987466363
 20
410.547445071044308
 30
0.0
 11
915.7558088987466363
 21
524.047445071044308
 31
0.0
  0
LINE
  5
517
  8
LAYER3
 10
855.7558088987464089
 20
524.047445071044308
 30
0.0
 11
855.7558088987464089
 21
277.047445071044308
 31
0.0
  0
LINE
  5
51A
  8
LAYER3
 10
912.7558088987465226
 20
390.547445071044308
 30
0.0
 11
912.7558088987465226
 21
396.297445071044308
 31
0.0
  0
LINE
  5
51B
  8
LAYER3
 10
912.7558088987465226
 20
404.797445071044308
 30
0.0
 11
912.7558088987465226
 21
410.547445071044308
 31
0.0
  0
LINE
  5
51C
  8
LAYER3
 10
915.7558088987466363
 20
390.547445071044308
 30
0.0
 11
912.7558088987465226
 21
390.547445071044308
 31
0.0
  0
LINE
  5
51D
  8
LAYER3
 10
915.7558088987466363
 20
410.547445071044308
 30
0.0
 11
912.7558088987465226
 21
410.547445071044308
 31
0.0
  0
POLYLINE
  5
51E
  8
LAYER3
 66
     1
 10
0.0
 20
0.0
 30
0.0
  0
VERTEX
  5
C14
  8
LAYER3
 10
912.7558088987465226
 20
404.797445071044308
 30
0.0
  0
VERTEX
  5
C15
  8
LAYER3
 10
909.7558088987468636
 20
404.797445071044308
 30
0.0
  0
VERTEX
  5
C16
  8
LAYER3
 10
909.7558088987468636
 20
396.297445071044308
 30
0.0
  0
VERTEX
  5
C17
  8
LAYER3
 10
912.7558088987465226
 20
396.297445071044308
 30
0.0
  0
SEQEND
  5
C18
  8
LAYER3
  0
LINE
  5
5F2
  8
DEFPOINTS
 10
687.1417564236187445
 20
751.6574634747779555
 30
0.0
 11
797.1417564236187445
 21
751.6574634747779555
 31
0.0
  0
LINE
  5
60D
  8
DEFPOINTS
 10
687.1417564236187445
 20
771.6574634747779555
 30
0.0
 11
797.1417564236187445
 21
771.6574634747779555
 31
0.0
  0
LINE
  5
60E
  8
DEFPOINTS
 10
682.1417564236187445
 20
766.6574634747779555
 30
0.0
 11
682.1417564236187445
 21
756.6574634747779555
 31
0.0
  0
LINE
  5
610
  8
LAYER1
 10
742.1417564236187445
 20
771.6574634747779555
 30
0.0
 11
742.1417564236187445
 21
751.6574634747779555
 31
0.0
  0
POLYLINE
  5
62E
  8
DEFPOINTS
 66
     1
 10
0.0
 20
0.0
 30
0.0
  0
VERTEX
  5
C19
  8
DEFPOINTS
 10
737.1417564236187445
 20
757.6574634747779555
 30
0.0
  0
VERTEX
  5
C1A
  8
DEFPOINTS
 10
737.1417564236187445
 20
765.6574634747779555
 30
0.0
  0
VERTEX
  5
C1B
  8
DEFPOINTS
 10
734.1417564236187445
 20
765.6574634747779555
 30
0.0
  0
VERTEX
  5
C1C
  8
DEFPOINTS
 10
734.1417564236187445
 20
757.6574634747779555
 30
0.0
  0
VERTEX
  5
C1D
  8
DEFPOINTS
 10
737.1417564236187445
 20
757.6574634747779555
 30
0.0
  0
SEQEND
  5
C1E
  8
DEFPOINTS
  0
LINE
  5
62F
  8
DEFPOINTS
 10
687.1417564236187445
 20
773.2180637977337483
 30
0.0
 11
797.1417564236187445
 21
773.2180637977337483
 31
0.0
  0
LINE
  5
630
  8
DEFPOINTS
 10
687.1417564236187445
 20
793.218063797733862
 30
0.0
 11
797.1417564236187445
 21
793.218063797733862
 31
0.0
  0
LINE
  5
631
  8
DEFPOINTS
 10
682.1417564236187445
 20
788.2180637977337483
 30
0.0
 11
682.1417564236187445
 21
778.2180637977337483
 31
0.0
  0
LINE
  5
632
  8
LAYER1
 10
742.1417564236187445
 20
793.218063797733862
 30
0.0
 11
742.1417564236187445
 21
773.2180637977337483
 31
0.0
  0
LINE
  5
633
  8
DEFPOINTS
 10
777.1417564236187445
 20
787.2180637977335209
 30
0.0
 11
777.1417564236187445
 21
779.2180637977335209
 31
0.0
  0
LINE
  5
634
  8
DEFPOINTS
 10
797.1417564236187445
 20
793.218063797733862
 30
0.0
 11
797.1417564236187445
 21
787.2180637977336346
 31
0.0
  0
POLYLINE
  5
635
  8
DEFPOINTS
 66
     1
 10
0.0
 20
0.0
 30
0.0
  0
VERTEX
  5
C1F
  8
DEFPOINTS
 10
737.1417564236187445
 20
779.2180637977337483
 30
0.0
  0
VERTEX
  5
C20
  8
DEFPOINTS
 10
737.1417564236187445
 20
787.2180637977337483
 30
0.0
  0
VERTEX
  5
C21
  8
DEFPOINTS
 10
734.1417564236187445
 20
787.2180637977337483
 30
0.0
  0
VERTEX
  5
C22
  8
DEFPOINTS
 10
734.1417564236187445
 20
779.2180637977337483
 30
0.0
  0
VERTEX
  5
C23
  8
DEFPOINTS
 10
737.1417564236187445
 20
779.2180637977337483
 30
0.0
  0
SEQEND
  5
C24
  8
DEFPOINTS
  0
LINE
  5
636
  8
DEFPOINTS
 10
685.6906560087691105
 20
735.7723896796071585
 30
0.0
 11
853.6906560087691105
 21
735.7723896796071585
 31
0.0
  0
LINE
  5
638
  8
DEFPOINTS
 10
685.6906560087691105
 20
715.7723896796071585
 30
0.0
 11
853.6906560087691105
 21
715.7723896796072722
 31
0.0
  0
LINE
  5
639
  8
DEFPOINTS
 10
680.6906560087691105
 20
730.7723896796072722
 30
0.0
 11
680.6906560087691105
 21
720.7723896796071585
 31
0.0
  0
LINE
  5
63A
  8
LAYER1
 10
740.6906560087691105
 20
735.7723896796071585
 30
0.0
 11
740.6906560087691105
 21
715.7723896796072722
 31
0.0
  0
POLYLINE
  5
63D
  8
DEFPOINTS
 66
     1
 10
0.0
 20
0.0
 30
0.0
  0
VERTEX
  5
C25
  8
DEFPOINTS
 10
735.6906560087691105
 20
721.7723896796072722
 30
0.0
  0
VERTEX
  5
C26
  8
DEFPOINTS
 10
735.6906560087691105
 20
729.7723896796071585
 30
0.0
  0
VERTEX
  5
C27
  8
DEFPOINTS
 10
732.6906560087691105
 20
729.7723896796071585
 30
0.0
  0
VERTEX
  5
C28
  8
DEFPOINTS
 10
732.6906560087691105
 20
721.7723896796072722
 30
0.0
  0
VERTEX
  5
C29
  8
DEFPOINTS
 10
735.6906560087691105
 20
721.7723896796072722
 30
0.0
  0
SEQEND
  5
C2A
  8
DEFPOINTS
  0
LINE
  5
63E
  8
DEFPOINTS
 10
685.6906560087691105
 20
710.4584783882407919
 30
0.0
 11
853.6906560087691105
 21
710.458478388241133
 31
0.0
  0
LINE
  5
63F
  8
DEFPOINTS
 10
685.6906560087691105
 20
690.4584783882409056
 30
0.0
 11
853.6906560087691105
 21
690.458478388241133
 31
0.0
  0
LINE
  5
640
  8
DEFPOINTS
 10
680.6906560087691105
 20
705.4584783882407919
 30
0.0
 11
680.6906560087691105
 21
695.4584783882409056
 31
0.0
  0
LINE
  5
641
  8
LAYER1
 10
740.6906560087691105
 20
710.4584783882407919
 30
0.0
 11
740.6906560087691105
 21
690.458478388241133
 31
0.0
  0
POLYLINE
  5
644
  8
DEFPOINTS
 66
     1
 10
0.0
 20
0.0
 30
0.0
  0
VERTEX
  5
C2B
  8
DEFPOINTS
 10
735.6906560087691105
 20
696.4584783882409056
 30
0.0
  0
VERTEX
  5
C2C
  8
DEFPOINTS
 10
735.6906560087691105
 20
704.4584783882409056
 30
0.0
  0
VERTEX
  5
C2D
  8
DEFPOINTS
 10
732.6906560087691105
 20
704.4584783882409056
 30
0.0
  0
VERTEX
  5
C2E
  8
DEFPOINTS
 10
732.6906560087691105
 20
696.4584783882409056
 30
0.0
  0
VERTEX
  5
C2F
  8
DEFPOINTS
 10
735.6906560087691105
 20
696.4584783882409056
 30
0.0
  0
SEQEND
  5
C30
  8
DEFPOINTS
  0
ARC
  5
645
  8
DEFPOINTS
 10
687.1417564236187445
 20
788.2180637977337483
 30
0.0
 40
5.0
 50
90.0
 51
180.0
  0
ARC
  5
646
  8
DEFPOINTS
 10
687.1417564236187445
 20
778.2180637977337483
 30
0.0
 40
5.0
 50
180.0
 51
270.0
  0
ARC
  5
647
  8
DEFPOINTS
 10
687.1417564236187445
 20
766.6574634747779555
 30
0.0
 40
5.0
 50
90.0
 51
180.0
  0
ARC
  5
648
  8
DEFPOINTS
 10
687.1417564236187445
 20
756.6574634747779555
 30
0.0
 40
5.0
 50
180.0
 51
270.0
  0
ARC
  5
649
  8
DEFPOINTS
 10
685.6906560087691105
 20
730.7723896796072722
 30
0.0
 40
5.0
 50
90.0000000000000568
 51
180.0
  0
ARC
  5
64A
  8
DEFPOINTS
 10
685.6906560087691105
 20
720.7723896796071585
 30
0.0
 40
5.0
 50
180.0
 51
270.0000000000001137
  0
ARC
  5
64B
  8
DEFPOINTS
 10
685.6906560087691105
 20
705.4584783882407919
 30
0.0
 40
5.0
 50
90.0000000000000568
 51
180.0
  0
ARC
  5
64C
  8
DEFPOINTS
 10
685.6906560087691105
 20
695.4584783882409056
 30
0.0
 40
5.0
 50
180.0
 51
270.0000000000001137
  0
LINE
  5
7D5
  8
DEFPOINTS
 10
777.1417564236187445
 20
787.2180637977336346
 30
0.0
 11
797.1417564236187445
 21
787.2180637977337483
 31
0.0
  0
LINE
  5
7D6
  8
DEFPOINTS
 10
777.1417564236187445
 20
779.2180637977335209
 30
0.0
 11
797.1417564236187445
 21
779.2180637977337483
 31
0.0
  0
LINE
  5
7D7
  8
DEFPOINTS
 10
797.1417564236187445
 20
779.2180637977337483
 30
0.0
 11
797.1417564236187445
 21
773.2180637977337483
 31
0.0
  0
LINE
  5
7DA
  8
DEFPOINTS
 10
777.1417564236187445
 20
765.6574634747776145
 30
0.0
 11
777.1417564236187445
 21
757.6574634747776145
 31
0.0
  0
LINE
  5
7DB
  8
DEFPOINTS
 10
797.1417564236187445
 20
771.6574634747779555
 30
0.0
 11
797.1417564236187445
 21
765.6574634747776145
 31
0.0
  0
LINE
  5
7DC
  8
DEFPOINTS
 10
797.1417564236187445
 20
757.6574634747778418
 30
0.0
 11
797.1417564236187445
 21
751.6574634747778418
 31
0.0
  0
LINE
  5
7DD
  8
DEFPOINTS
 10
777.1417564236187445
 20
765.6574634747776145
 30
0.0
 11
797.1417564236187445
 21
765.6574634747778418
 31
0.0
  0
LINE
  5
7DE
  8
DEFPOINTS
 10
777.1417564236187445
 20
757.6574634747776145
 30
0.0
 11
797.1417564236187445
 21
757.6574634747778418
 31
0.0
  0
LINE
  5
7DF
  8
DEFPOINTS
 10
833.6906560087689968
 20
729.7723896796069312
 30
0.0
 11
833.6906560087689968
 21
721.7723896796069312
 31
0.0
  0
LINE
  5
7E0
  8
DEFPOINTS
 10
853.6906560087691105
 20
735.7723896796071585
 30
0.0
 11
853.6906560087691105
 21
729.7723896796070449
 31
0.0
  0
LINE
  5
7E1
  8
DEFPOINTS
 10
853.6906560087691105
 20
721.7723896796070449
 30
0.0
 11
853.6906560087691105
 21
715.7723896796070449
 31
0.0
  0
LINE
  5
7E2
  8
DEFPOINTS
 10
833.6906560087689968
 20
729.7723896796070449
 30
0.0
 11
853.6906560087691105
 21
729.7723896796070449
 31
0.0
  0
LINE
  5
7E3
  8
DEFPOINTS
 10
833.6906560087689968
 20
721.7723896796069312
 30
0.0
 11
853.6906560087691105
 21
721.7723896796070449
 31
0.0
  0
LINE
  5
7E4
  8
DEFPOINTS
 10
833.6906560087689968
 20
704.4584783882404508
 30
0.0
 11
833.6906560087689968
 21
696.4584783882404508
 31
0.0
  0
LINE
  5
7E5
  8
DEFPOINTS
 10
853.6906560087691105
 20
710.4584783882407919
 30
0.0
 11
853.6906560087691105
 21
704.4584783882405645
 31
0.0
  0
LINE
  5
7E6
  8
DEFPOINTS
 10
853.6906560087691105
 20
696.4584783882407919
 30
0.0
 11
853.6906560087691105
 21
690.4584783882406782
 31
0.0
  0
LINE
  5
7E7
  8
DEFPOINTS
 10
833.6906560087689968
 20
704.4584783882405645
 30
0.0
 11
853.6906560087691105
 21
704.4584783882407919
 31
0.0
  0
LINE
  5
7E8
  8
DEFPOINTS
 10
833.6906560087689968
 20
696.4584783882404508
 30
0.0
 11
853.6906560087691105
 21
696.4584783882407919
 31
0.0
  0
POLYLINE
  5
9A5
  8
DEFPOINTS
 66
     1
 10
0.0
 20
0.0
 30
0.0
 70
     1
  0
VERTEX
  5
C70
  8
DEFPOINTS
 10
456.1260177318562796
 20
529.5474450710440806
 30
0.0
  0
VERTEX
  5
C71
  8
DEFPOINTS
 10
198.126017731856308
 20
529.5474450710440806
 30
0.0
  0
VERTEX
  5
C72
  8
DEFPOINTS
 10
198.126017731856308
 20
271.547445071044308
 30
0.0
  0
VERTEX
  5
C73
  8
DEFPOINTS
 10
456.1260177318562796
 20
271.547445071044308
 30
0.0
  0
SEQEND
  5
C74
  8
DEFPOINTS
  0
POLYLINE
  5
9AF
  8
DEFPOINTS
 66
     1
 10
0.0
 20
0.0
 30
0.0
  0
VERTEX
  5
C75
  8
DEFPOINTS
 10
439.1260177318562796
 20
355.8161132551304036
 30
0.0
  0
VERTEX
  5
C76
  8
DEFPOINTS
 10
429.1260177318562796
 20
355.8161132551304036
 30
0.0
  0
VERTEX
  5
C77
  8
DEFPOINTS
 10
429.1260177318562796
 20
365.8161132551304036
 30
0.0
  0
VERTEX
  5
C78
  8
DEFPOINTS
 10
439.1260177318562796
 20
365.8161132551304036
 30
0.0
  0
VERTEX
  5
C79
  8
DEFPOINTS
 10
439.1260177318562796
 20
355.8161132551304036
 30
0.0
  0
SEQEND
  5
C7A
  8
DEFPOINTS
  0
POLYLINE
  5
9B0
  8
DEFPOINTS
 66
     1
 10
0.0
 20
0.0
 30
0.0
  0
VERTEX
  5
C7B
  8
DEFPOINTS
 10
225.126017731856308
 20
355.8161132551304036
 30
0.0
  0
VERTEX
  5
C7C
  8
DEFPOINTS
 10
215.1260177318563933
 20
355.8161132551304036
 30
0.0
  0
VERTEX
  5
C7D
  8
DEFPOINTS
 10
215.1260177318563933
 20
365.8161132551304036
 30
0.0
  0
VERTEX
  5
C7E
  8
DEFPOINTS
 10
225.126017731856308
 20
365.8161132551304036
 30
0.0
  0
VERTEX
  5
C7F
  8
DEFPOINTS
 10
225.126017731856308
 20
355.8161132551304036
 30
0.0
  0
SEQEND
  5
C80
  8
DEFPOINTS
  0
POLYLINE
  5
AB0
  8
DEFPOINTS
 66
     1
 10
0.0
 20
0.0
 30
0.0
 70
     1
  0
VERTEX
  5
C81
  8
DEFPOINTS
 10
958.7808531178161502
 20
404.0861340377377928
 30
0.0
 42
-1.0
  0
VERTEX
  5
C82
  8
DEFPOINTS
 10
950.7808531178161502
 20
404.0861340377377928
 30
0.0
 42
-1.0
  0
SEQEND
  5
C83
  8
DEFPOINTS
  0
POLYLINE
  5
AB1
  8
DEFPOINTS
 66
     1
 10
0.0
 20
0.0
 30
0.0
 70
     1
  0
VERTEX
  5
C84
  8
DEFPOINTS
 10
1006.2808531178160365
 20
471.0861340377377928
 30
0.0
 42
0.4142135623730951
  0
VERTEX
  5
C85
  8
DEFPOINTS
 10
1005.2808531178160365
 20
472.0861340377377928
 30
0.0
  0
VERTEX
  5
C86
  8
DEFPOINTS
 10
954.7808531178160365
 20
472.0861340377377928
 30
0.0
 42
-0.2809392587967589
  0
VERTEX
  5
C87
  8
DEFPOINTS
 10
952.7673526196100511
 20
422.4762350636626138
 30
0.0
 42
2.2395030491249721
  0
VERTEX
  5
C88
  8
DEFPOINTS
 10
973.2808531178161502
 20
404.0861340377377928
 30
0.0
  0
VERTEX
  5
C89
  8
DEFPOINTS
 10
1006.2808531178160365
 20
404.0861340377377928
 30
0.0
  0
SEQEND
  5
C8A
  8
DEFPOINTS
  0
POLYLINE
  5
B9E
  8
DEFPOINTS
 66
     1
 10
0.0
 20
0.0
 30
0.0
 70
     1
  0
VERTEX
  5
C8B
  8
DEFPOINTS
 10
1078.8194098959349958
 20
404.0861340377377928
 30
0.0
 42
1.0
  0
VERTEX
  5
C8C
  8
DEFPOINTS
 10
1086.8194098959349958
 20
404.0861340377377928
 30
0.0
 42
1.0
  0
SEQEND
  5
C8D
  8
DEFPOINTS
  0
POLYLINE
  5
B9F
  8
DEFPOINTS
 66
     1
 10
0.0
 20
0.0
 30
0.0
 70
     1
  0
VERTEX
  5
C8E
  8
DEFPOINTS
 10
1031.3194098959349958
 20
471.0861340377377928
 30
0.0
 42
-0.4142135623730951
  0
VERTEX
  5
C8F
  8
DEFPOINTS
 10
1032.3194098959349958
 20
472.0861340377377928
 30
0.0
  0
VERTEX
  5
C90
  8
DEFPOINTS
 10
1082.8194098959349958
 20
472.0861340377377928
 30
0.0
 42
0.2809392587967589
  0
VERTEX
  5
C91
  8
DEFPOINTS
 10
1084.8329103941409812
 20
422.4762350636626138
 30
0.0
 42
-2.2395030491249721
  0
VERTEX
  5
C92
  8
DEFPOINTS
 10
1064.3194098959349958
 20
404.0861340377377928
 30
0.0
  0
VERTEX
  5
C93
  8
DEFPOINTS
 10
1031.3194098959349958
 20
404.0861340377377928
 30
0.0
  0
SEQEND
  5
C94
  8
DEFPOINTS
  0
ENDSEC
  0
EOF
